<svg width="58" height="60" viewBox="0 0 58 60" fill="none" xmlns="http://www.w3.org/2000/svg">
<path d="M29.1361 36.7099C27.467 36.7099 26.1094 35.3427 26.1094 33.6622C26.1094 31.9814 27.467 30.6143 29.1361 30.6143C30.8049 30.6143 32.1628 31.9814 32.1628 33.6622C32.1628 35.3427 30.8049 36.7099 29.1361 36.7099ZM29.1361 33.3306C28.9547 33.3306 28.807 33.4793 28.807 33.662C28.807 33.8445 28.9547 33.9931 29.1361 33.9931C29.3173 33.9931 29.465 33.8445 29.465 33.662C29.465 33.4793 29.3175 33.3306 29.1361 33.3306Z" fill="#383838"/>
<path d="M29.1335 38.4009C28.3885 38.4009 27.7847 37.7927 27.7847 37.0425V35.353C27.7847 34.6029 28.3885 33.9946 29.1335 33.9946C29.8783 33.9946 30.4823 34.6029 30.4823 35.353V37.0425C30.4823 37.7927 29.8783 38.4009 29.1335 38.4009Z" fill="#383838"/>
<path d="M35.286 27.1346H22.9819C22.2371 27.1346 21.6331 26.5265 21.6331 25.7763V24.0867C21.6331 19.9217 24.9979 16.5332 29.134 16.5332C30.9008 16.5332 32.617 17.1648 33.9673 18.3119C35.6624 19.7519 36.6347 21.8567 36.6347 24.0867V25.7763C36.6349 26.5265 36.031 27.1346 35.286 27.1346ZM24.3309 24.418H33.9373V24.0867C33.9373 22.659 33.3143 21.3111 32.2282 20.3883C31.3637 19.6541 30.2651 19.2499 29.1341 19.2499C26.4856 19.2499 24.3309 21.4197 24.3309 24.0867V24.418Z" fill="#383838"/>
<path d="M29.1353 42.3415C23.4574 42.3415 18.8381 37.6897 18.8381 31.972V25.7768C18.8381 25.0266 19.4421 24.4185 20.1869 24.4185H38.0838C38.8287 24.4185 39.4326 25.0266 39.4326 25.7768V31.972C39.4326 35.944 37.235 39.5069 33.6973 41.27C32.2705 41.981 30.7356 42.3415 29.1353 42.3415ZM21.5357 27.1353V31.9721C21.5357 36.1919 24.9449 39.625 29.1353 39.625C30.317 39.625 31.4491 39.3593 32.5006 38.8355C35.1124 37.5338 36.7351 34.904 36.7351 31.9723V27.1354H21.5357V27.1353Z" fill="#383838"/>
<path d="M35.2993 59.9998H23.0361C22.6734 59.9998 22.3263 59.8529 22.0726 59.5922C20.9713 58.4604 19.938 57.406 18.9681 56.4166C11.4359 48.7316 7.65519 44.8741 5.71207 39.0681C3.79756 33.3472 3.8086 26.0091 3.83051 11.3895C3.83289 9.73252 3.83542 7.9808 3.83542 6.12596C3.83542 5.72267 4.01339 5.34023 4.32132 5.08223C4.6291 4.82422 5.0351 4.7169 5.42873 4.7903C7.55906 5.18534 9.66851 5.38571 11.6984 5.38571C17.6683 5.38556 23.2949 3.64975 28.4223 0.22631C28.9209 -0.106893 29.5782 -0.0690698 30.0363 0.319367C34.0048 3.68442 39.1811 5.32027 45.8608 5.32012C48.0355 5.32012 50.3979 5.13881 52.8826 4.78144C53.27 4.72576 53.6617 4.84208 53.9571 5.09994C54.2525 5.35794 54.4221 5.73242 54.4221 6.12611C54.4221 8.65576 54.4285 10.9421 54.4347 13.1531C54.4728 26.7527 54.4917 33.5791 52.7299 38.9216C50.9401 44.3487 47.4558 47.962 40.5143 55.1604C39.2495 56.4721 37.8158 57.9587 36.2736 59.5809C36.0192 59.8486 35.6673 59.9998 35.2993 59.9998ZM23.6024 57.2832H34.7237C36.1207 55.8168 37.4204 54.4691 38.5788 53.2678C45.2342 46.3663 48.5746 42.9023 50.1698 38.0652C51.7928 33.1433 51.7743 26.4652 51.7371 13.1605C51.7321 11.4065 51.7272 9.60523 51.7253 7.67205C49.6728 7.914 47.7061 8.03648 45.8608 8.03648C39.0404 8.03663 33.4012 6.35275 29.0812 3.02927C23.7285 6.39613 17.8859 8.10192 11.6985 8.10207C10.0144 8.10207 8.28283 7.97509 6.53257 7.72369C6.53168 8.99646 6.52974 10.2187 6.5281 11.3933C6.50678 25.715 6.49605 32.9037 8.26852 38.2004C10.0128 43.412 13.6472 47.1202 20.8881 54.5081C21.7426 55.3802 22.6466 56.3023 23.6024 57.2832Z" fill="#383838"/>
<path d="M33.7218 51.85C33.3865 51.85 33.0505 51.725 32.7892 51.473C32.2512 50.9543 32.2326 50.0946 32.7477 49.5526C33.6428 48.6109 34.4741 47.7444 35.246 46.9398C40.118 41.8613 42.5637 39.3123 43.7111 35.9559C44.8817 32.5325 44.8629 27.9296 44.8258 18.7598C44.8206 17.4418 44.8146 15.9912 44.8121 14.4376C38.1503 15.1573 32.9793 14.0844 29.0748 11.1718C23.8861 14.3615 18.0988 15.392 11.8583 14.2345C11.1256 14.0987 10.6412 13.3904 10.7762 12.6527C10.9111 11.915 11.6148 11.4272 12.3471 11.5629C18.2113 12.6506 23.6169 11.5785 28.4134 8.37616C28.9124 8.04296 29.5697 8.08093 30.0276 8.46922C33.6762 11.5634 38.8903 12.5723 45.969 11.5541C46.3565 11.4982 46.7481 11.6147 47.0435 11.8727C47.3389 12.1306 47.5085 12.505 47.5085 12.8989C47.5085 15.0333 47.5165 17.0073 47.5234 18.7487C47.6006 37.7916 47.5039 38.0727 37.1861 48.8275C36.4167 49.6293 35.5883 50.4931 34.6963 51.4311C34.4314 51.7099 34.0768 51.85 33.7218 51.85Z" fill="#383838"/>
<path d="M56.6513 59.9996H1.34887C0.603935 59.9996 0 59.3913 0 58.6413C0 57.8913 0.603935 57.283 1.34887 57.283H56.6513C57.3961 57.283 58 57.8913 58 58.6413C58 59.3913 57.3961 59.9996 56.6513 59.9996Z" fill="#383838"/>
<path d="M49.9076 54.5653H40.4658C39.721 54.5653 39.1169 53.957 39.1169 53.207C39.1169 52.457 39.721 51.8486 40.4658 51.8486H49.9076C50.6526 51.8486 51.2565 52.457 51.2565 53.207C51.2565 53.957 50.6526 54.5653 49.9076 54.5653Z" fill="#383838"/>
<path d="M17.5334 54.5653H8.09155C7.34662 54.5653 6.74268 53.957 6.74268 53.207C6.74268 52.457 7.34662 51.8486 8.09155 51.8486H17.5334C18.2783 51.8486 18.8822 52.457 18.8822 53.207C18.8822 53.957 18.2783 54.5653 17.5334 54.5653Z" fill="#383838"/>
</svg>
